<svg width="22" height="20" viewBox="0 0 22 20" fill="none" xmlns="http://www.w3.org/2000/svg">
<path d="M10.0818 1.12771C10.4292 0.322663 11.5708 0.322663 11.9182 1.12771L14.0982 6.1796C14.2453 6.52048 14.5691 6.75181 14.9393 6.78042L20.53 7.21241C21.4269 7.28172 21.7833 8.40778 21.0896 8.98057L16.8852 12.4518C16.5886 12.6967 16.4588 13.0899 16.5512 13.4632L17.8451 18.6916C18.0579 19.5514 17.1304 20.2429 16.3671 19.7935L11.5073 16.9326C11.1942 16.7482 10.8058 16.7482 10.4927 16.9326L5.63294 19.7935C4.86964 20.2429 3.94211 19.5514 4.1549 18.6916L5.44884 13.4632C5.54123 13.0899 5.41136 12.6967 5.1148 12.4518L0.910412 8.98057C0.216653 8.40778 0.573058 7.28172 1.47004 7.21241L7.06069 6.78042C7.43086 6.75181 7.75471 6.52048 7.90181 6.1796L10.0818 1.12771Z" fill="#23262F"/>
</svg>
